<?xml version="1.0" encoding="utf-8"?>
<!-- Generator: Adobe Illustrator 22.1.0, SVG Export Plug-In . SVG Version: 6.00 Build 0)  -->
<svg version="1.1" id="Layer_1" xmlns="http://www.w3.org/2000/svg" xmlns:xlink="http://www.w3.org/1999/xlink" x="0px" y="0px"
	 viewBox="0 0 500 500" style="enable-background:new 0 0 500 500;" xml:space="preserve">
<path d="M250,0C111.9,0,0,111.9,0,250s111.9,250,250,250s250-111.9,250-250S388.1,0,250,0z M375.1,333.3c0,1.7-0.4,3.3-1,4.7
	c-2.2,3.9-6.4,6.5-11.2,6.5c-12.4,0-24.9,0-37.3,0c-2.7,0-5.3,0-7.9,0c-1.4,1.1-3.1,1.9-5.1,2.4c-1.1,0.3-2.2,0.4-3.4,0.4
	c-26.6,0.1-58.3,0.1-84.9,0c-0.3,0-1.1-0.1-1.1-0.2c0,0.1-0.8,0.2-1.2,0.2c-26.6,0.1-58.3,0.1-84.9,0c-7.2-0.1-11.7-4.1-11.9-10.4
	c-0.2-4.4-0.1-8.9-0.1-13.3c0-6.3,3.3-11,9-14.9c16.3-11.1,38.7-20.8,57.2-28.9c1.9-0.9,2.8-2,2.7-3.9c-0.2-3.5,0-7.1-0.1-10.6
	c0-1.6-0.6-3.1-0.9-4.9c0.2,0,0.4,0,0.6,0c-0.3,0-0.6-0.8-0.8-1.3c-2.4-4.9-5.3-9.6-8-14.4c-0.5-0.9-1.2-1.6-1.8-2.4
	c-5.8-7.9-8.6-16.5-7.9-25.9c0.1-1.3,0.4-2.9,1.2-3.9c2.3-2.9,1.6-5.9,1.1-8.9c-1-6.5-1.5-13,0.2-19.4c2.1-7.9,6.6-13.8,15.9-16
	c0.9-0.2,1.8-1,2.2-1.8c5.1-9.3,16.1-14.2,27.6-14c11.6-0.2,22.5,4.7,27.6,14c0.4,0.7,1.4,1.6,2.2,1.8c9.3,2.1,13.8,8.1,15.9,16
	c1.7,6.5,1.2,12.9,0.2,19.4c-0.5,3.1-1.2,6,1.1,8.9c0.8,1,1.1,2.6,1.2,3.9c0.7,9.5-2.1,18.1-7.9,25.9c-0.6,0.8-1.3,1.5-1.8,2.4
	c-2.7,4.7-5.7,9.4-8,14.4c-0.2,0.5-0.5,1.3-0.8,1.3c0.1,0,0.2,0,0.3,0c-0.3,1.7-0.8,3.3-0.9,4.9c-0.2,3.5,0.1,7.1-0.1,10.6
	c-0.1,2,0.7,3,2.7,3.9c5.8,2.6,12.1,5.3,18.4,8.2c9.7,4.4,19.5,9.2,28.4,14.3c1.7,1,3.3,1.9,4.9,2.9c2,1.2,3.8,2.4,5.6,3.6
	c5.7,3.9,8.9,8.6,8.9,14.7c0,3.1,0.1,6.3,0.1,9.4c0,1.4,0,2.7-0.1,4c0,0.3,0,0.6-0.1,0.9c-0.3,2.6-1.3,4.8-3,6.4
	c4.2-1.3,6.8-4.5,7.2-8.8c0.1,0,0.2,0,0.3,0c12.8,0,23.2-10.4,23.2-23.2c0-4.7-1.5-9.2-4.1-12.9c-4.2-6.1-11.2-10.1-19.1-10.1
	c-8.1,0-15.2,4.3-19.4,10.6c0,0-0.1,0-0.1,0.1c-8.9-5.1-18.7-9.9-28.4-14.3c2.4-3.4,6.3-5.4,11.2-5.4c4.7,0,9.5,0.1,14.4,0.1v0.1
	h2.2v-2.2c0-5.7,4.2-10.4,9.7-11.1h-0.1c0.4-0.1,0.8-0.1,1.3-0.1c2.9,0,5.8,0,8.7,0c3.1,0,6.1,0,9.2,0c0.1,0,0,0,0.1,0
	c5.9,0.4,10.2,5.2,10.2,11.2v2.2h3.1v-0.1c5.1,0,10-0.2,15-0.1s8.9,2.3,11.3,6.7c0.2,0.3,0.3,0.5,0.4,0.8c0.4,1.2,0.6,2.4,0.7,3.5
	L375.1,333.3L375.1,333.3z M310.8,302.8c3.2-4.7,8.6-7.7,14.7-7.7c9.8,0,17.7,8,17.9,17.8c0,9.8-8,17.8-17.8,17.8c0,0,0,0-0.1,0
	c0-3.1-0.1-6.3-0.1-9.4c0-6.3-3.3-11-9-14.9C314.6,305.1,312.7,304,310.8,302.8z"/>
</svg>
